<svg width="220" height="27" viewBox="0 0 220 27" fill="none" xmlns="http://www.w3.org/2000/svg">
<path d="M0.269531 24.0488V2.74414C0.269531 2.24023 0.46875 1.79492 0.867188 1.4082C1.26562 1.02148 1.72852 0.816406 2.25586 0.792969H9.39258C12.0762 0.792969 14.1621 1.49023 15.6504 2.88477C17.1387 4.2793 17.8828 6.20117 17.8828 8.65039C17.8828 11.1934 17.1562 13.1152 15.7031 14.416C14.25 15.7051 12.1465 16.3496 9.39258 16.3496H3.73242V24.0488C3.73242 24.623 3.57422 25.0918 3.25781 25.4551C2.95312 25.8184 2.53711 26 2.00977 26C1.45898 26 1.03125 25.8242 0.726562 25.4727C0.421875 25.1094 0.269531 24.6348 0.269531 24.0488ZM3.73242 13.1855H10.0254C12.9551 13.1855 14.4199 11.6504 14.4199 8.58008C14.4199 7.13867 14.0508 6.01367 13.3125 5.20508C12.5859 4.38477 11.4902 3.97461 10.0254 3.97461H3.73242V13.1855ZM23.9648 24.0488V2.74414C23.9648 2.16992 24.1113 1.70117 24.4043 1.33789C24.709 0.974609 25.1367 0.792969 25.6875 0.792969C26.25 0.792969 26.6777 0.974609 26.9707 1.33789C27.2754 1.70117 27.4277 2.16992 27.4277 2.74414V22.8359H38.6602C39.8789 22.8359 40.4883 23.3633 40.4883 24.418C40.4883 25.4727 39.8789 26 38.6602 26H25.916C25.3652 26 24.9023 25.8184 24.5273 25.4551C24.1523 25.0801 23.9648 24.6113 23.9648 24.0488ZM43.0898 24.2773C43.0898 24.0078 43.1367 23.7324 43.2305 23.4512L51.2637 2.33984C51.4043 2 51.5156 1.74805 51.5977 1.58398C51.6797 1.41992 51.8262 1.25 52.0371 1.07422C52.2598 0.886719 52.5117 0.792969 52.793 0.792969C53.0859 0.792969 53.3379 0.886719 53.5488 1.07422C53.7715 1.25 53.9238 1.41992 54.0059 1.58398C54.0996 1.74805 54.2168 2 54.3574 2.33984L62.3906 23.4512C62.4844 23.7441 62.5312 24.0195 62.5312 24.2773C62.5312 24.8047 62.373 25.2266 62.0566 25.543C61.752 25.8477 61.3359 26 60.8086 26C60.0703 26 59.5371 25.6016 59.209 24.8047L56.8359 18.7578H48.7852L46.3945 24.8047C46.0781 25.6016 45.5508 26 44.8125 26C44.2852 26 43.8633 25.8477 43.5469 25.543C43.2422 25.2266 43.0898 24.8047 43.0898 24.2773ZM49.9629 15.5938H55.6582L52.8105 7.38477L49.9629 15.5938ZM65.5898 2.56836C65.5898 1.94727 65.8535 1.44336 66.3809 1.05664C66.6504 0.892578 67.002 0.804688 67.4355 0.792969C68.1035 0.792969 68.6074 1.04492 68.9473 1.54883L75.1348 11.3926L81.3223 1.54883C81.709 1.02148 82.2129 0.757812 82.834 0.757812C83.2441 0.757812 83.6191 0.880859 83.959 1.12695C84.4395 1.4668 84.6797 1.94727 84.6797 2.56836C84.6797 2.97852 84.5684 3.34766 84.3457 3.67578L76.8574 14.9785V24.1367C76.8574 24.6641 76.6934 25.1094 76.3652 25.4727C76.0488 25.8242 75.6387 26 75.1348 26C74.6309 26 74.2148 25.8242 73.8867 25.4727C73.5703 25.1094 73.4121 24.6641 73.4121 24.1367V14.9785L65.9238 3.67578C65.7129 3.38281 65.6016 3.01367 65.5898 2.56836ZM110.238 2.67383C110.238 2.12305 110.414 1.67188 110.766 1.32031C111.117 0.96875 111.557 0.792969 112.084 0.792969C112.822 0.792969 113.338 1.19141 113.631 1.98828L119.889 19.7422L126.146 1.98828C126.439 1.19141 126.955 0.792969 127.693 0.792969C128.221 0.792969 128.66 0.96875 129.012 1.32031C129.363 1.67188 129.539 2.12305 129.539 2.67383C129.539 2.86133 129.504 3.08984 129.434 3.35938L121.471 24.8047C121.154 25.6016 120.627 26 119.889 26C119.15 26 118.623 25.6016 118.307 24.8047L110.344 3.35938C110.273 3.08984 110.238 2.86133 110.238 2.67383ZM136.236 26C134.936 26 134.285 25.4727 134.285 24.418C134.285 23.3633 134.936 22.8359 136.236 22.8359H140.051V3.97461H136.236C134.936 3.97461 134.285 3.44727 134.285 2.39258C134.285 1.32617 134.936 0.792969 136.236 0.792969H147.328C148.629 0.792969 149.279 1.32031 149.279 2.375C149.279 3.44141 148.629 3.97461 147.328 3.97461H143.514V22.8359H147.328C148.629 22.8359 149.279 23.3574 149.279 24.4004C149.279 25.4668 148.629 26 147.328 26H136.236ZM156.293 24.0488V2.74414C156.293 2.19336 156.48 1.73047 156.855 1.35547C157.23 0.980469 157.693 0.792969 158.244 0.792969H164.361C167.408 0.792969 169.775 1.95898 171.463 4.29102C173.162 6.62305 174.012 9.66406 174.012 13.4141C174.012 17.1523 173.162 20.1875 171.463 22.5195C169.775 24.8398 167.408 26 164.361 26H158.279C157.705 26 157.23 25.8184 156.855 25.4551C156.48 25.0801 156.293 24.6113 156.293 24.0488ZM159.756 22.8359H164.432C166.4 22.8359 167.912 21.9805 168.967 20.2695C170.021 18.5469 170.549 16.2559 170.549 13.3965C170.549 10.5371 170.021 8.25195 168.967 6.54102C167.912 4.83008 166.4 3.97461 164.432 3.97461H159.756V22.8359ZM178.266 24.0488V2.74414C178.266 2.19336 178.447 1.73047 178.811 1.35547C179.186 0.980469 179.648 0.792969 180.199 0.792969H192.943C194.197 0.792969 194.824 1.32617 194.824 2.39258C194.824 3.44727 194.197 3.97461 192.943 3.97461H181.711V11.4629H189.99C191.197 11.4629 191.801 11.9961 191.801 13.0625C191.801 14.1055 191.197 14.627 189.99 14.627H181.711V22.8359H193.488C194.766 22.8359 195.404 23.3574 195.404 24.4004C195.404 25.4668 194.766 26 193.488 26H180.199C179.648 26 179.186 25.8184 178.811 25.4551C178.447 25.0801 178.266 24.6113 178.266 24.0488ZM201.592 22.748C199.857 20.334 198.99 17.2227 198.99 13.4141C198.99 9.59375 199.857 6.47656 201.592 4.0625C203.338 1.64844 205.828 0.441406 209.062 0.441406C212.309 0.441406 214.799 1.64844 216.533 4.0625C218.279 6.47656 219.152 9.59375 219.152 13.4141C219.152 17.2227 218.279 20.334 216.533 22.748C214.799 25.1504 212.309 26.3516 209.062 26.3516C205.828 26.3516 203.338 25.1504 201.592 22.748ZM204.176 6.29492C203.074 8.07617 202.523 10.4434 202.523 13.3965C202.523 16.3496 203.074 18.7227 204.176 20.5156C205.289 22.2969 206.924 23.1875 209.08 23.1875C211.236 23.1875 212.865 22.2969 213.967 20.5156C215.08 18.7227 215.637 16.3496 215.637 13.3965C215.637 10.4434 215.08 8.07617 213.967 6.29492C212.865 4.50195 211.236 3.60547 209.08 3.60547C206.924 3.60547 205.289 4.50195 204.176 6.29492Z" fill="white"/>
</svg>
