<svg xmlns="http://www.w3.org/2000/svg" viewBox="0 0 150.38 151.38"><defs><style>.cls-1{fill:#ffffff;}</style></defs><g id="Layer_2" data-name="Layer 2"><g id="Layer_1-2" data-name="Layer 1"><path class="cls-1" d="M144.71,60.06s-20.81,4.49-25.28,0c-3.56-3.58,0-20.26,0-20.26a8.51,8.51,0,0,0-8.5-8.54s-16.61,3.58-20.18,0c-4.5-4.52,0-25.57,0-25.57A5.68,5.68,0,0,0,85.08,0H65.29a5.68,5.68,0,0,0-5.67,5.69s4.5,21,0,25.57c-3.56,3.58-20.17,0-20.17,0a8.52,8.52,0,0,0-8.51,8.54s3.57,16.68,0,20.26c-4.46,4.49-25.27,0-25.27,0A5.68,5.68,0,0,0,0,65.75V85.63a5.68,5.68,0,0,0,5.67,5.69s20.81-4.49,25.27,0c3.57,3.58,0,20.26,0,20.26a8.52,8.52,0,0,0,8.51,8.54s16.61-3.58,20.17,0c4.5,4.52,0,25.57,0,25.57a5.68,5.68,0,0,0,5.67,5.69H85.08a5.68,5.68,0,0,0,5.67-5.69s-4.5-21,0-25.57c3.57-3.58,20.18,0,20.18,0a8.51,8.51,0,0,0,8.5-8.54s-3.56-16.68,0-20.26c4.47-4.49,25.28,0,25.28,0a5.68,5.68,0,0,0,5.67-5.69V65.75A5.68,5.68,0,0,0,144.71,60.06ZM74.51,97.38a23,23,0,1,1,22.91-23A23,23,0,0,1,74.51,97.38Z"/></g></g></svg>