<svg xmlns="http://www.w3.org/2000/svg" viewBox="0 0 201.89 145.05"><defs><style>.cls-1{fill:#ffffff;}</style></defs><g id="Layer_2" data-name="Layer 2"><g id="Layer_1-2" data-name="Layer 1"><path class="cls-1" d="M109.71,125c-6.66-1.37-9.44-3.19-15.23-6.71,0,0-1.49-.59-1.41-.82-.73-1.2-1.74-3-2.4-3.9-7.6-10.29-15.59-20.25-25-29-.77-.72-1.23-2-3.47-1.56,2.77,3,5.14,5.72,7.7,8.26,7.65,7.58,11.49,16.08,18.88,23.88.45.37.79.83.46.67-6.86-3-11.4-5.2-18.27-8.24-1.42-.63-3.79-1.49-4.73-2.63C59.71,97,54,84.42,45.93,78c-.42-.34-2.74.62-3.53.69C49,85.59,54.47,93.2,60,100.88c-16.8-2.95-37.36-22.65-38.54-23.47-3.82-2.66,6,7.93,8.41,12C20.63,86.77,12.08,82.24,1.48,80c6.64-3.27,11.94-6.23,18-7.7,24-5.85,46.75-1.4,69.08,7.74,16.82,6.89,25.92,20.1,31,36.76.92,3,3.13,5.33,4.22,8.23.58,1.55,1.74,1.62.83,2.81s-2.16.26-3.58,0c-3.88-.63-6.54-1.45-8.23-5-3.43-7.31-5.9-14.89-10.93-21.25-3.14-4-8-7.59-12.3-10.64C96,102.28,105,112.06,110,124.25,109.92,124.51,109.81,124.78,109.71,125Z"/><path class="cls-1" d="M95.49,123.37l-13.94,3.07c-8.83,1.56-17.61.17-26.4-.48l-1,0c0,.61.46.45.82.41,8.4,3.27,17.52,4.75,26.21,3.47,4.07-.66,8.63-.77,12.7-1.45,8.48-1.4,13.72-2.49,22.09,2.79-6.71,3.95-14.09,3.48-20.91,5.1l-15.18.31c-.51-.15-1-.28-1.25.41l1,.25c4.86,1.67,9.76,1.67,14.67,1.17,8.06-1.12,17,0,24.17-5.15,1.7-1.22,3-.61,4.87-.26-15.78,13.41-33.12,14.79-51.85,8.1-10-3.57-20.15-6.61-29.65-11.45-11.71-6-22.28-13.49-29.66-24.4-4.7-7-7.85-15-12.15-23.39a74.29,74.29,0,0,1,22.31,7c-.06.32-2.38.9-3.8.64L13,88.94c2.93,3.08,6.59,3,10.09,2.62a14.06,14.06,0,0,1,8,1.51c5.67,2.74,5.73,2.22,11.41,5.27-10.41.74-20.72.63-31.42-2,1.18,2.65,9,5.91,10.93,6.06,7.76.61,15.63,2.18,23.3,1,7.35-1.12,13.26,1.5,19.4,4.36A110.17,110.17,0,0,1,75,113c-10.89,1.91-21.79,1.37-32.67-.34-.12,1.8-.19,4,.44,4.13,10.82,1.56,22.81,2,33.65,0,2.13-.39,3.75-2.12,5.67-1,4.46,2.48,9.62,3.63,13.66,7A5,5,0,0,0,95.49,123.37Z"/><path class="cls-1" d="M128.37,118.6c3-4.93,5.46-6.83,10.3-10.83,0,0,.94-1.06,1.15-1,1.33-.41,3.34-1,4.35-1.33C156,100.94,167.58,96.09,178.36,90c.89-.5,2.22-.69,2.38-2.46-3.57,1.74-6.8,3.21-9.89,4.85-9.22,4.9-18.36,6.75-27.72,11.42-.46.3-1,.51-.76.27,4.67-4.88,7.88-8.08,12.54-13,1-1,2.39-2.72,3.72-3.29,9.33-4,22.87-6.77,31.12-12.14.44-.28.1-2.18.24-2.8a269.57,269.57,0,0,1-25.83,10.68C171.24,71,195.37,57.78,196.46,57c3.52-2.59-9.14,3.6-13.69,4.91,4.91-6.77,11.43-12.76,16.26-20.61,1.47,5.52,3,10,2.86,14.81-.45,19.17-10.49,36.08-24.93,52.05-10.87,12-25.86,17.32-43.15,19-3.16.32-5.91,1.72-9,2.18-1.63.25-2,1.13-2.91.28s.3-1.7.88-2.76c1.58-2.9,3-4.83,6.93-5.66,7.89-1.7,15.79-2.62,23.18-5.66,4.62-1.9,9.31-5.15,13.34-8.08C153.71,111,142,116.66,129.05,119Z"/><path class="cls-1" d="M133.58,107.9l.57-11.1c.74-7,4.29-13.55,7.15-20.22.07-.26.15-.52.22-.78-.59,0-.55.29-.6.57-5.26,6-9,12.85-10,19.68-.4,3.21-1.44,6.74-1.83,10-.8,6.69-1.07,10.85-8.27,16.61-2.09-5.67.22-11.28.4-16.72l3.54-11.7c.28-.37.53-.75-.08-1l-.49.73A24.58,24.58,0,0,0,119.4,105c-1,6.34-4.31,13-1.17,19.23.74,1.46-.19,2.41-1,3.77-8.89-13.84-5.84-27.34,5.33-40.86,6-7.22,11.45-14.63,18.51-21.3,8.69-8.23,18.6-15.37,30.95-19.64,7.87-2.72,16.37-4.1,25.55-6.32a64.44,64.44,0,0,1-12.42,16.23c-.29-.09-.26-2,.36-3l2-4.17c-3.69,1.85-4.54,4.68-5.06,7.41a11.17,11.17,0,0,1-3.49,6c-4.06,4-3.58,4.11-7.95,8.08,1.93-8.08,4.64-16,9.9-23.87-2.85.57-8,6.17-8.59,7.61-2.55,5.89-6.05,11.73-6.86,17.77-.78,5.8-4.8,10-9.1,14.34-2.42,2.44-4.86,4.87-7.69,7.22.93-8.61,4.21-16.91,8.6-25-1.7-.32-3.83-.66-4.08-.18-4.24,8.1-7.66,17.26-8.52,25.83-.16,1.69,1.09,3.16-.41,4.49-3.52,3.11-5.93,6.92-10.15,9.6A5.68,5.68,0,0,0,133.58,107.9Z"/><path class="cls-1" d="M99.56,58.92c-.84-3.41-.59-5-.22-8.34,0,0,0-.8.07-.8.41-.53,1-1.29,1.32-1.73a87,87,0,0,0,8.16-16.36c.17-.48.66-.89,0-1.91-.79,1.78-1.56,3.33-2.19,4.95-1.89,4.81-5.06,7.93-7.1,12.64-.07.28-.21.51-.21.33-.09-3.76-.08-6.27-.17-10A6.68,6.68,0,0,1,99.37,35c2.32-4.35,7-9,8.26-13.82.07-.26-.9-1.23-1.11-1.61a89.46,89.46,0,0,1-6.6,11.81c-2.34-8.54,2.4-21.38,2.53-22.07.4-2.23-2.42,4.08-3.83,5.85-.8-4.87-.56-9.67-1.86-15.11,3,2.71,5.61,4.83,7.65,7.53C112.53,18.27,115.49,29.9,116.14,42c.49,9.13-3.73,15.48-10.5,20.39-1.24.9-1.83,2.3-3,3.26-.6.51-.37,1.08-1.14.82s-.61-1-.81-1.72c-.57-2-.77-3.37.55-4.72,2.7-2.75,5.73-5.06,7.63-8.43a26.08,26.08,0,0,0,2.29-7.51c-3.92,4.81-6.55,10.6-11.2,14.84Z"/><path class="cls-1" d="M97.44,58.93c.63-3.45.29-5-.27-8.34,0,0,0-.8-.13-.79-.43-.51-1.11-1.23-1.41-1.65A86.35,86.35,0,0,1,86.52,32.3c-.2-.47-.72-.85-.08-1.9.9,1.72,1.76,3.23,2.48,4.8,2.17,4.69,5.52,7.62,7.83,12.21.09.26.25.49.24.31-.14-3.76-.3-6.26-.42-10A6.9,6.9,0,0,0,96.22,35c-2.58-4.2-7.52-8.54-9.07-13.31-.08-.25.83-1.28,1-1.67a88.57,88.57,0,0,0,7.28,11.4c1.84-8.66-3.65-21.19-3.82-21.88-.54-2.21,2.65,3.93,4.16,5.61.51-4.9,0-9.68,1-15.19-2.86,2.89-5.32,5.15-7.2,8-7.47,11.16-9.74,23-9.67,35.09,0,9.14,4.64,15.23,11.68,19.73,1.29.83,2,2.19,3.15,3.08.63.48.43,1.06,1.19.75s.54-1,.71-1.76c.45-2,.57-3.41-.84-4.68-2.85-2.58-6-4.71-8.1-8a25.86,25.86,0,0,1-2.74-7.37C89.14,49.42,92.1,55,97,59Z"/><path class="cls-1" d="M110.46,90.93c2.72-3.75,3.36-6.15,4.82-11,0,0,.5-1,.37-1.15-.11-1.11-.33-2.76-.36-3.63a203.11,203.11,0,0,1,.86-30.07c.1-.81-.18-1.85,1.09-2.52-.19,3.18-.28,6-.53,8.81-.77,8.34.68,15.67.12,24-.07.44-.06.9,0,.65,2.16-5,3.54-8.33,5.71-13.29A11.63,11.63,0,0,0,123.87,59c.07-8.14-2.07-19-.65-26.77.07-.41,1.59-.75,2-1a214.65,214.65,0,0,0,.09,22.4c7.07-9.11,9.41-31.06,9.67-32.11.82-3.41.16,7.88.6,11.65,3.49-5.73,5.9-12.41,10.22-18.41-4.54.62-8.3.89-11.84,2.47-14.05,6.26-23.45,18.92-30.8,34.53-5.53,11.77-4.81,24.49-.74,37.81.74,2.44.56,4.91,1.16,7.32.33,1.29-.22,1.83.7,2.24s1.16-.74,1.77-1.5c1.65-2.07,2.63-3.75,2-6.88-1.19-6.37-2.95-12.49-3-18.9A55.13,55.13,0,0,1,107,59.48c1.27,10.36.71,20.74,3,31.06Z"/><path class="cls-1" d="M116.76,83.77l8-3.85c4.93-2.71,8.69-7.37,12.74-11.55.17-.13.81-.89,1-1,.22.42.28,1.12.09,1.25A33,33,0,0,1,126.33,82c-2.25,1.29-4.53,3.15-6.78,4.43-4.71,2.66-7.7,4.15-9.73,11.25,4.84-.2,8.27-3.65,12.24-5.46L129.62,86c.19-.32.39-.62.77-.25l-.38.59a19.74,19.74,0,0,1-6.73,7c-4.39,2.67-8.32,7.22-13.86,6.81-1.31-.1-1.73.88-2.49,1.89,13,2.3,22-4.14,28.58-16.58,3.49-6.64,7.27-13,10-20.28,3.39-9,5.61-18.51,5-29-.43-6.67-2-13.38-3.23-20.86A51.69,51.69,0,0,0,139.1,29.6c.16.18,1.52-.41,2.11-1.2l2.46-2.77c-.23,3.31-2,4.81-3.91,6a8.89,8.89,0,0,0-3.34,4.42c-1.7,4.25-1.94,3.93-3.52,8.38a56.66,56.66,0,0,0,14.59-14.7c.47,2.28-2.09,7.8-3,8.71-3.56,3.71-6.8,8.1-11,10.57-4,2.37-5.9,6.64-7.79,11.16-1.06,2.55-2.1,5.1-3,7.92,6.09-3.35,11.21-8.34,15.87-14.1.77,1.16,1.68,2.63,1.41,3-4.69,5.64-10.4,11-16.48,14.29-1.2.64-2.67.17-3.19,1.7-1.22,3.56-3.29,6.52-4,10.47A4,4,0,0,1,116.76,83.77Z"/><path class="cls-1" d="M92.34,85.07c-1.59-3.65-3.09-5.18-6-8.38,0,0-.54-.81-.69-.77-.88-.41-2.2-1-2.85-1.32a175.07,175.07,0,0,1-22-13.79c-.55-.42-1.45-.68-1.39-1.91,2.28,1.53,4.35,2.84,6.31,4.25,5.85,4.22,11.93,6.34,17.9,10.42.29.24.64.44.5.25-2.74-3.77-4.64-6.27-7.37-10a9.8,9.8,0,0,0-2.24-2.6c-6-3.62-15-6.78-20.16-11.23-.27-.23.14-1.5.1-1.94a182.86,182.86,0,0,0,16.68,9.73c-3.67-9.23-19-20.57-19.62-21.22-2.16-2.1,5.92,3.33,8.92,4.65-2.73-5.1-6.63-9.81-9.2-15.64-1.52,3.64-3,6.55-3.35,9.87-1.49,13.17,3.8,25.68,12.18,38,6.31,9.25,16.08,14.28,27.75,17.08,2.13.52,3.89,1.73,5.94,2.34,1.09.32,1.26,1,2,.46s0-1.19-.34-2c-.81-2.13-1.63-3.59-4.21-4.53-5.24-1.9-10.56-3.27-15.34-6a47.35,47.35,0,0,1-8.36-6.78c8.24,3.58,15.7,8.54,24.38,11.33Z"/><path class="cls-1" d="M89.79,77.26q.31-3.83.65-7.65c.14-4.85-1.67-9.68-3-14.51,0-.18,0-.37-.08-.56.41,0,.35.25.36.45,3,4.63,5,9.64,5,14.41,0,2.23.36,4.74.32,7-.08,4.66-.29,7.53,4.1,12.15,2-3.68.91-7.74,1.3-11.48q-.68-4.17-1.33-8.34c-.15-.28-.29-.56.15-.69l.27.55a17,17,0,0,1,2.26,8.06c.07,4.43,1.73,9.33-1,13.27-.65.93-.1,1.67.32,2.67,7.38-8.64,6.55-18.16.18-28.47C95.86,58.6,92.8,53,88.59,47.78,83.41,41.34,77.3,35.52,69.25,31.44c-5.14-2.6-10.82-4.35-16.9-6.72a44.66,44.66,0,0,0,7,12.27c.21,0,.36-1.31,0-2.09l-1-3c2.35,1.62,2.67,3.63,2.77,5.55A7.71,7.71,0,0,0,63,41.82c2.41,3.12,2.07,3.15,4.69,6.28a49.28,49.28,0,0,0-4.53-17.27c1.89.65,4.87,5,5.16,6,1.19,4.26,3,8.59,3,12.8,0,4,2.34,7.29,4.88,10.67,1.43,1.9,2.87,3.79,4.58,5.66.18-6-1.29-12-3.53-18,1.19-.06,2.68-.09,2.81.26,2.14,5.94,3.63,12.53,3.4,18.48,0,1.17-1,2.06-.13,3.11,2.12,2.46,3.41,5.29,6,7.52Z"/></g></g></svg>