<svg viewBox="0 0 97.4 95.87" xmlns="http://www.w3.org/2000/svg"><path d="m62 33.16a23.33 23.33 0 0 1 8.26 14.09c.29 1.66.36 4.57 1.07 4.75a25.29 25.29 0 0 0 8.92.64c2.92-.35 4.63-2.82 5.57-5.5s1.46-5.61 2.51-8.29c.56-1.43 1.92-3.69 2.78-3.63a7.66 7.66 0 0 1 4.77 2.61c2.07 2.47 1.73 5.61.89 8.53a23.85 23.85 0 0 1 -12.6 15.17c-2.69 1.34-6.55 1.27-9.65.67-4.26-.84-7.39-.77-9.62 3.6-.85 1.66-2.79 2.88-4.44 4a2.2 2.2 0 0 0 -1.06 3c.39 1.14.66 2.32 1.11 3.43 2.18 5.29 5.94 7.34 11.54 6.2 2.52-.51 5-1.47 7.48-1.87 1.46-.23 3.48-.27 4.45.55 1.59 1.34 1.17 3.55.33 5.39-1.24 2.69-3.59 4.07-6.26 4.92-5.64 1.8-11.09.84-16.53-1.05a12.08 12.08 0 0 1 -7.42-6.43c-1.28-2.76-2.5-5.56-3.57-8.41-.49-1.31-1-1.94-2.52-1.9a21 21 0 0 1 -14.24-5 2.34 2.34 0 0 0 -3.23-.2 38 38 0 0 0 -3.33 2.39c-3.59 3.17-4.48 6.68-2.53 11 1.17 2.63 2.93 5 4.1 7.64.62 1.4 1.24 3.49.63 4.62-1 1.88-3.35 2-5.41 1.58a9.52 9.52 0 0 1 -6.08-4.81c-3.89-6.46-4.25-13.4-2.34-20.48a9.14 9.14 0 0 1 2.8-3.85c2.64-2.45 5.46-4.7 8.36-7.16a24.06 24.06 0 0 1 .87-18.54 2.22 2.22 0 0 0 -.61-1.82c-4.17-4.46-9.54-4.78-14.18-.76-2.12 1.84-4 4-6 5.9-2.79 2.58-5 2-6.39-1.62a7.41 7.41 0 0 1 1.2-7.08c4-5.8 10-8 16.55-9.31 5.78-1.15 9.88 2 14 5.11 1.58 1.2 2.57 1.42 4.32.29a21.2 21.2 0 0 1 15.08-2.8 2.36 2.36 0 0 0 2.86-1.36c4.21-7.12 3-12.17-4.1-16.41-2-1.2-4.11-2.22-6-3.53-2.41-1.64-2.48-3.27-.46-5.37s4.57-2.42 7.29-1.71c4.42 1.14 7.58 4.07 10.32 7.54 4.88 6.17 6.51 12.77 2.78 20.11-.83 1.64-1.51 3.36-2.3 5.13" fill="#fff"/></svg>