<svg viewBox="0 0 522.25 522.43" xmlns="http://www.w3.org/2000/svg"><g fill="#fff"><path d="m28.19 233.09-.36 2.63-26.28-3.57.51-3.72 19.82-3.5-19-2.58.36-2.59 26.27 3.57-.41 3-22.16 3.87z"/><path d="m5.45 206.87a5.44 5.44 0 0 1 2.72-4.05 7.5 7.5 0 0 1 5-.42l2.23.47-.59 2.75-2.37-.51a4.63 4.63 0 0 0 -2.91.14 3.25 3.25 0 0 0 -1 4.61 4.59 4.59 0 0 0 2.6 1.33l13.77 2.91a4.53 4.53 0 0 0 2.92-.15 3.27 3.27 0 0 0 1-4.61 4.67 4.67 0 0 0 -2.63-1.34l-5.19-1.08-.56 2.67-2.6-.55 1.16-5.41 7.64 1.62a7.58 7.58 0 0 1 4.44 2.44 6.51 6.51 0 0 1 -1.88 8.82 7.53 7.53 0 0 1 -5.05.42l-13.41-2.86a9.54 9.54 0 0 1 -2.61-.92 5.83 5.83 0 0 1 -1.83-1.51 5.07 5.07 0 0 1 -.93-2.1 6.78 6.78 0 0 1 .08-2.67z"/><path d="m14.76 196.22a7.42 7.42 0 0 1 -4.26-2.79 5.62 5.62 0 0 1 -.45-4.89 5.68 5.68 0 0 1 3-3.9 7.3 7.3 0 0 1 5.1-.1l13.17 3.82a7.29 7.29 0 0 1 4.23 2.81 6.67 6.67 0 0 1 -2.55 8.83 7.43 7.43 0 0 1 -5.08.09zm14.13 1.06a4.52 4.52 0 0 0 2.93 0 3.32 3.32 0 0 0 1.32-4.57 4.59 4.59 0 0 0 -2.5-1.51l-13.46-3.9a4.57 4.57 0 0 0 -2.92-.06 3.32 3.32 0 0 0 -1.33 4.56 4.51 4.51 0 0 0 2.5 1.54z"/><path d="m31.61 178.08-17.89-.64 1.06-2.88 13.65.65-10.77-8.43 1-2.63 14 11.2 8.92 3.29-1 2.74z"/><path d="m49.26 160.41-1.2 2.59-21-5 19.14 9-1.1 2.33-23.97-11.33 1.75-3.74 21 5.06-17.36-12.77 1.75-3.73 24 11.27-1.19 2.53-19.31-9.06z"/><path d="m51.68 144.18 4.11 3.56-1.37 2.36-20.42-17.68 2.14-3.7 25.5 8.88-1.48 2.56-5.16-1.79zm-2-1.6 3-5.12-14.75-5.07z"/><path d="m64.19 133.7-21.95-14.87 1.66-2.45 19.73 13.36 4.24-6.27 2.23 1.53z"/><path d="m70.43 115.6 3.57 4.11-1.68 2.14-17.71-20.38 2.64-3.36 24 12.4-1.83 2.32-4.83-2.5zm-1.76-1.86 3.66-4.65-13.89-7.09z"/><path d="m80.43 97.11-16.32-7.37 2.08-2.26 12.39 5.77-6.78-11.88 1.89-2.07 8.72 15.7 7 6.43-2 2.15z"/><path d="m80.12 73 18.51 19-2.11 2.06-18.52-18.98z"/><path d="m90.78 58.08a4 4 0 0 1 .23 2 2.43 2.43 0 0 1 -.82 1.42 3.12 3.12 0 0 1 -.88.55 8.31 8.31 0 0 1 -.9.27c-.29.07-.57.15-.83.23a2.08 2.08 0 0 0 -.74.41 1.76 1.76 0 0 0 -.54.77 2 2 0 0 0 .06 1.11l-1.76.23a3.63 3.63 0 0 1 -.22-2 2.74 2.74 0 0 1 .89-1.45 3.12 3.12 0 0 1 .88-.55 9 9 0 0 1 .9-.27l.83-.22a1.92 1.92 0 0 0 .71-.4 1.63 1.63 0 0 0 .41-1.87zm13.77 28.39-2 1.74-17.42-20 2.87-2.46 17.22 10.43-12.63-14.46 2-1.71 17.41 19.99-2.32 2-19.21-11.7z"/><path d="m107.42 60.59 2.25 2.9-2.24 1.75-2.26-2.9zm8.85 11.41 2.26 2.9-2.25 1.74-2.28-2.91z"/><path d="m120.47 41.16q2.66-1.69 4.65-1.13a6.53 6.53 0 0 1 3.6 3l1.16 1.82a6.94 6.94 0 0 1 1.25 3.43 4.19 4.19 0 0 1 -1.08 2.94 4 4 0 0 1 3.22.25 7.63 7.63 0 0 1 2.57 2.61l2.22 3.48c.32.49.64 1 1 1.38a3.71 3.71 0 0 0 1.19 1l-2.52 1.62a4.9 4.9 0 0 1 -1-.84 13.48 13.48 0 0 1 -1.17-1.61l-2.24-3.51a3.89 3.89 0 0 0 -2.51-2.06 4.32 4.32 0 0 0 -2.87.82l-1.76 1.13 6.11 9.54-2.49 1.59-14.3-22.27zm6.11 10.94a4.55 4.55 0 0 0 1.93-2.1c.28-.76 0-1.75-.74-3l-1.37-2.13a4.32 4.32 0 0 0 -2.06-1.87 2.8 2.8 0 0 0 -2.48.51l-2.43 1.49 5.29 8.26z"/><path d="m145.67 40.07 1.26 2.33-5.69 3.1 4.51 8.28 7-3.8 1.25 2.36-9.58 5.22-12.67-23.3 9.58-5.21 1.29 2.36-7 3.8 4.33 8z"/><path d="m160.92 33.42 1.08 2.44-5.54 2.55 4.79 10.43-2.68 1.23-11.04-24.07 9.57-4.4 1.12 2.4-6.88 3.17 4 8.78z"/><path d="m172.92 37a4.66 4.66 0 0 0 1.69 2.37 2.73 2.73 0 0 0 2.57.1 2.68 2.68 0 0 0 1.82-1.74 4.71 4.71 0 0 0 -.31-2.9l-7.17-19 2.58-1 7.13 18.81a7.66 7.66 0 0 1 .37 5.06 6.41 6.41 0 0 1 -8.39 3.3 7.61 7.61 0 0 1 -3.07-4l-7.14-18.91 2.72-1z"/><path d="m186.17 10.76a5.36 5.36 0 0 1 4.8.45 7.52 7.52 0 0 1 2.76 4.21l.21.69-2.69.8-.25-.83a4.63 4.63 0 0 0 -1.49-2.48 2.65 2.65 0 0 0 -2.49-.28 2.67 2.67 0 0 0 -1.94 1.6 4.65 4.65 0 0 0 .11 2.86 4.86 4.86 0 0 0 1.37 2.28 9.78 9.78 0 0 0 2.16 1.47c.8.4 1.66.78 2.57 1.13a17.39 17.39 0 0 1 2.61 1.25 9.86 9.86 0 0 1 2.26 1.84 7.11 7.11 0 0 1 1.55 2.87 7.44 7.44 0 0 1 0 5.05 6.58 6.58 0 0 1 -8.71 2.59 7.55 7.55 0 0 1 -2.72-4.26l-.43-1.45 2.65-.79.47 1.59a4.54 4.54 0 0 0 1.53 2.47 3.3 3.3 0 0 0 4.5-1.34 4.52 4.52 0 0 0 -.07-2.9 4.89 4.89 0 0 0 -1.37-2.27 10.25 10.25 0 0 0 -2.15-1.45c-.81-.4-1.66-.78-2.56-1.13a18.2 18.2 0 0 1 -2.59-1.26 9.91 9.91 0 0 1 -2.26-1.8 7.22 7.22 0 0 1 -1.56-2.88 7.5 7.5 0 0 1 0-5 5.34 5.34 0 0 1 3.73-3.03z"/><path d="m201.07 7.06 6.22 25.77-2.87.7-6.23-25.78z"/><path d="m215.2 31.1-2.61.48-4.79-26.09 3.69-.67 9.51 17.74-3.47-18.85 2.57-.47 4.78 26.08-3 .55-10.55-19.87z"/><path d="m233 1.31a5.44 5.44 0 0 1 4.69 1.32 7.51 7.51 0 0 1 2 4.66l.25 2.26-2.79.31-.26-2.41a4.69 4.69 0 0 0 -1-2.73 2.76 2.76 0 0 0 -2.54-.72 2.73 2.73 0 0 0 -2.22 1.25 4.61 4.61 0 0 0 -.45 2.89l1.52 13.93a4.69 4.69 0 0 0 1.06 2.73 2.78 2.78 0 0 0 2.45.74 2.74 2.74 0 0 0 2.29-1.28 4.65 4.65 0 0 0 .43-2.88l-.58-5.27-2.71.29-.29-2.63 5.5-.6.85 7.75a7.55 7.55 0 0 1 -.92 5 5.46 5.46 0 0 1 -4.31 2.3 5.41 5.41 0 0 1 -4.66-1.32 7.56 7.56 0 0 1 -2-4.66l-1.51-13.65a9.74 9.74 0 0 1 .06-2.77 5.62 5.62 0 0 1 .86-2.21 4.86 4.86 0 0 1 1.7-1.54 6.81 6.81 0 0 1 2.58-.76z"/><path d="m259.29 26.54-.08-23.83h-4.89v-2.71h12.68v2.69h-4.88l.07 23.83z"/><path d="m275.3 15-.83 11.9-3-.2 1.89-26.49 2.95.21-.83 11.9 6.5.45.83-11.9 2.95.2-1.84 26.46-2.92-.21.83-11.9z"/><path d="m300.68 14.84-.37 2.62-6.42-.92-1.33 9.34 7.88 1.12-.38 2.66-10.81-1.54 3.75-26.24 10.8 1.54-.38 2.66-7.87-1.08-1.28 9z"/><path d="m317.55 27.84-2.33 4.92-2.64-.68 11.52-24.42 4.15 1.06-1.69 27-2.86-.74.34-5.42zm1-2.37 5.72 1.53.91-15.57z"/><path d="m345.11 13.83c2 .68 3.24 1.65 3.78 2.93a6.53 6.53 0 0 1 -.14 4.71l-.69 2.05a7 7 0 0 1 -1.9 3.11 4.22 4.22 0 0 1 -3 1 4 4 0 0 1 1.84 2.67 7.61 7.61 0 0 1 -.43 3.63l-1.33 3.91a15.39 15.39 0 0 0 -.47 1.62 3.75 3.75 0 0 0 -.07 1.54l-2.83-1a5.12 5.12 0 0 1 0-1.29 13.41 13.41 0 0 1 .53-1.92l1.34-3.94a3.92 3.92 0 0 0 .05-3.25 4.25 4.25 0 0 0 -2.44-1.72l-2-.68-3.58 10.8-2.77-1 8.53-25.11zm-4.74 11.59a4.5 4.5 0 0 0 2.85.2c.78-.26 1.4-1.07 1.87-2.43l.82-2.4a4.41 4.41 0 0 0 .21-2.81 2.79 2.79 0 0 0 -1.95-1.62l-2.73-.93-3.15 9.29z"/><path d="m363 20.36a5.48 5.48 0 0 1 3.46 3.44 7.52 7.52 0 0 1 -.55 5l-.91 2.2-2.58-1.09 1-2.34a4.74 4.74 0 0 0 .42-2.89 3.27 3.27 0 0 0 -4.35-1.84 4.68 4.68 0 0 0 -1.8 2.31l-5.46 12.91a4.63 4.63 0 0 0 -.4 2.89 2.73 2.73 0 0 0 1.77 1.84 2.76 2.76 0 0 0 2.57 0 4.7 4.7 0 0 0 1.78-2.31l1.35-3.18 2.58 1.09-1.29 3a7.5 7.5 0 0 1 -3.23 3.9 5.51 5.51 0 0 1 -4.88-.09 5.4 5.4 0 0 1 -3.48-3.36 7.52 7.52 0 0 1 .55-5l5.34-12.63a9.65 9.65 0 0 1 1.4-2.39 5.77 5.77 0 0 1 1.83-1.51 5 5 0 0 1 2.24-.51 6.65 6.65 0 0 1 2.64.56z"/><path d="m370.66 40.2-5.44 10.62-2.63-1.35 12.1-23.6 2.63 1.35-5.45 10.62 5.8 3 5.45-10.62 2.62 1.35-12.09 23.6-2.65-1.38 5.44-10.62z"/><path d="m394.34 36.5-13.4 22.89-2.55-1.5 13.4-22.89z"/><path d="m402.2 41.32-9.2 21.6 16.33-16.85 2.27 1.51-18.8 19.35-3.63-2.41 10.5-24.86z"/><path d="m417.17 66.5-1.63 2.1-5.12-4-5.77 7.46 6.29 4.94-1.65 2.13-8.62-6.68 16.22-21 8.63 6.68-1.64 2.12-6.3-4.86-5.58 7.15z"/><path d="m433.32 73.25a7.4 7.4 0 0 1 4.45-2.48 6.71 6.71 0 0 1 6.6 6.33 7.34 7.34 0 0 1 -2.27 4.57l-9.5 9.89a7.27 7.27 0 0 1 -4.45 2.44 6.67 6.67 0 0 1 -6.6-6.33 7.35 7.35 0 0 1 2.28-4.53zm-7.49 12a4.48 4.48 0 0 0 -1.39 2.58 2.78 2.78 0 0 0 1 2.36 2.81 2.81 0 0 0 2.42.93 4.63 4.63 0 0 0 2.5-1.51l9.7-10.12a4.6 4.6 0 0 0 1.42-2.49 2.84 2.84 0 0 0 -1-2.38 2.81 2.81 0 0 0 -2.41-.91 4.48 4.48 0 0 0 -2.51 1.5z"/><path d="m448.32 97.08-2 1.81-4.1-4.52-8.5 7.72-2-2.18 19.63-17.84 7.08 7.8-2 1.81-5.09-5.61-7.15 6.5z"/><path d="m472.23 107.22a5.56 5.56 0 0 1 1.27 4.72 7.33 7.33 0 0 1 -3 4l-10.79 7.9a7.26 7.26 0 0 1 -4.74 1.67 5.65 5.65 0 0 1 -4.11-2.66l-3.67-5 21.39-15.67zm-19.25 14a2.84 2.84 0 0 0 2.18 1.33 4.34 4.34 0 0 0 2.7-1l11-8.06a4.4 4.4 0 0 0 1.78-2.27 2.9 2.9 0 0 0 -.64-2.52l-1.88-2.56-17.05 12.49z"/><path d="m474.76 132.12-2.24 1.41-3.45-5.48-8 5 4.24 6.74-2.31 1.44-5.8-9.24 22.45-14.1 5.8 9.24-2.27 1.43-4.18-6.74-7.67 4.82z"/><path d="m471.72 145.74-5.2 1.6-1.28-2.41 25.81-7.93 2 3.78-21.05 16.9-1.38-2.61 4.24-3.41zm2.42-.85 2.77 5.22 12.09-9.81z"/><path d="m475.52 165.44 21.82-9.58-2-4.47 2.47-1.08 5.19 11.69-2.51 1-2-4.47-21.82 9.57z"/><path d="m492.52 175.51-11.25 4-1-2.78 25-8.86 1 2.78-11.24 4 2.17 6.14 11.25-4 1 2.78-25 8.86-1-2.78 11.24-4z"/><path d="m518.65 216.63-28-5.1-.5-2.53 28 5.1z"/><path d="m520.33 227.19-27.88-5.94-.43-2.54 27.88 5.94z"/><path d="m521.51 238.56-27.51-7.42-.28-2.56 27.5 7.42z"/><path d="m522.25 249.61-27.19-8.61-.18-2.57 27.18 8.57z"/><path d="m495.53 275.44.2-2.64 26.44 2-.28 3.74-19.57 4.68 19.11 1.44-.2 2.6-26.44-2 .23-3.06 21.89-5.15z"/><path d="m519.81 300.24a5.45 5.45 0 0 1 -2.48 4.2 7.52 7.52 0 0 1 -5 .72l-2.25-.34.42-2.77 2.4.36a4.68 4.68 0 0 0 2.9-.31 3.28 3.28 0 0 0 .7-4.66 4.61 4.61 0 0 0 -2.68-1.17l-13.82-2.09a4.59 4.59 0 0 0 -2.9.33 3.27 3.27 0 0 0 -.7 4.66 4.7 4.7 0 0 0 2.68 1.16l5.24.78.41-2.69 2.62.39-.82 5.47-7.72-1.16a7.54 7.54 0 0 1 -4.58-2.16 5.47 5.47 0 0 1 -1.12-4.75 5.39 5.39 0 0 1 2.47-4.17 7.52 7.52 0 0 1 5-.72l13.56 2a9.76 9.76 0 0 1 2.66.77 5.65 5.65 0 0 1 1.92 1.4 4.86 4.86 0 0 1 1.05 2 6.78 6.78 0 0 1 .04 2.75z"/><path d="m511.14 311.44a7.35 7.35 0 0 1 4.42 2.53 6.7 6.7 0 0 1 -2 8.92 7.31 7.31 0 0 1 -5.08.41l-13.37-3a7.26 7.26 0 0 1 -4.4-2.55 6.66 6.66 0 0 1 2-8.92 7.34 7.34 0 0 1 5.06-.39zm-14.14-.22a4.57 4.57 0 0 0 -2.93.14 2.82 2.82 0 0 0 -1.5 2.09 2.79 2.79 0 0 0 .43 2.55 4.68 4.68 0 0 0 2.59 1.37l13.67 3.09a4.62 4.62 0 0 0 2.92-.12 3.31 3.31 0 0 0 1.05-4.64 4.56 4.56 0 0 0 -2.58-1.38z"/><path d="m495.41 330.54 17.91-.43-.89 2.93-13.67.17 11.24 7.79-.82 2.69-14.63-10.34-9.1-2.76.84-2.79z"/><path d="m478.84 349.22 1.06-2.64 21.22 3.74-19.63-7.83.95-2.39 24.64 9.82-1.53 3.83-21.29-3.75 18.11 11.74-1.52 3.84-24.64-9.82 1-2.6 19.85 7.84z"/><path d="m477.4 365.58-4.31-3.31 1.22-2.44 21.43 16.43-1.92 3.83-26-7.36 1.32-2.64 5.24 1.48zm2.1 1.47-2.65 5.29 15 4.18z"/><path d="m465.53 376.78 22.8 13.54-1.51 2.54-20.49-12.17-3.87 6.51-2.31-1.37z"/><path d="m460.37 395.22-3.8-3.89 1.55-2.24 18.88 19.29-2.44 3.52-24.68-11 1.68-2.42 5 2.2zm1.87 1.75-3.37 4.86 14.28 6.27z"/><path d="m452.65 412.8 16.78 6.26-1.92 2.4-12.75-4.93 7.56 11.4-1.75 2.19-9.74-15-7.42-5.95 1.82-2.27z"/><path d="m454.58 436.82-19.74-17.71 2-2.2 19.74 17.71z"/><path d="m429.31 425 1.88-1.87 18.72 18.79-2.66 2.64-17.88-9.24 13.53 13.57-1.85 1.85-18.72-18.74 2.18-2.17 19.93 10.4zm15.69 27.43a3.81 3.81 0 0 1 -.37-2 2.45 2.45 0 0 1 .72-1.47 2.94 2.94 0 0 1 .85-.6 7.72 7.72 0 0 1 .8-.36c.29-.09.56-.18.82-.28a2.14 2.14 0 0 0 .71-.47 1.74 1.74 0 0 0 .48-.8 2 2 0 0 0 -.13-1.1l1.74-.35a3.59 3.59 0 0 1 .36 2 2.93 2.93 0 0 1 -1.64 2.11 7.72 7.72 0 0 1 -.87.33l-.82.28a2 2 0 0 0 -.68.44 1.64 1.64 0 0 0 -.3 1.85z"/><path d="m418.58 440.27-2.44-2.75 2.12-1.89 2.44 2.75zm9.6 10.77-2.44-2.74 2.12-1.89 2.44 2.74z"/><path d="m416.8 471.39a5.46 5.46 0 0 1 -4.72 1.24 7.61 7.61 0 0 1 -4.06-3l-1.42-1.92 2.25-1.67 1.51 2a4.66 4.66 0 0 0 2.28 1.83 3.27 3.27 0 0 0 3.79-2.81 4.63 4.63 0 0 0 -1.08-2.72l-8.35-11.25a4.62 4.62 0 0 0 -2.29-1.81 3.26 3.26 0 0 0 -3.79 2.81 4.6 4.6 0 0 0 1.09 2.7l2.05 2.77-2.25 1.67-2-2.64a7.54 7.54 0 0 1 -1.71-4.77 6.51 6.51 0 0 1 7.24-5.37 7.56 7.56 0 0 1 4.06 3l8.17 11a9.61 9.61 0 0 1 1.34 2.42 5.62 5.62 0 0 1 .37 2.35 4.89 4.89 0 0 1 -.69 2.18 6.67 6.67 0 0 1 -1.79 1.99z"/><path d="m402.87 473.14a7.42 7.42 0 0 1 1.34 4.92 5.57 5.57 0 0 1 -2.88 4 5.66 5.66 0 0 1 -4.84.94 7.34 7.34 0 0 1 -3.89-3.3l-7.35-11.57a7.37 7.37 0 0 1 -1.32-4.91 5.63 5.63 0 0 1 2.9-4 5.53 5.53 0 0 1 4.82-.91 7.39 7.39 0 0 1 3.87 3.29zm-9.87-10.14a4.47 4.47 0 0 0 -2.17-2 3.32 3.32 0 0 0 -4 2.55 4.61 4.61 0 0 0 .87 2.79l7.52 11.83a4.6 4.6 0 0 0 2.15 2 3.31 3.31 0 0 0 4-2.54 4.48 4.48 0 0 0 -.85-2.8z"/><path d="m375.08 466.51 2.34-1.25 12.5 23.39-3.31 1.76-14.45-14 9 16.91-2.31 1.23-12.5-23.38 2.71-1.45 16.09 15.71z"/><path d="m358.06 475 9.68 21.77 4.46-2 1.09 2.45-11.59 5.16-1.09-2.38 4.46-2-9.68-21.78z"/><path d="m350.34 506.77q-3 1.07-4.78.08a6.58 6.58 0 0 1 -2.83-3.77l-.74-2a7 7 0 0 1 -.46-3.62 4.19 4.19 0 0 1 1.7-2.63 4.05 4.05 0 0 1 -3.08-1 7.57 7.57 0 0 1 -1.93-3.11l-1.41-3.89a16.73 16.73 0 0 0 -.64-1.55 3.69 3.69 0 0 0 -.94-1.26l2.82-1a4.71 4.71 0 0 1 .77 1 13.71 13.71 0 0 1 .79 1.84l1.41 3.91a3.93 3.93 0 0 0 2 2.57 4.34 4.34 0 0 0 3-.17l2-.71-3.86-10.65 2.78-1 9 24.94zm-3.53-12a4.57 4.57 0 0 0 -2.36 1.64 3.53 3.53 0 0 0 .06 3.06l.87 2.39a4.42 4.42 0 0 0 1.58 2.32 2.82 2.82 0 0 0 2.54 0l2.71-1-3.34-9.18z"/><path d="m329.15 491.46-.45-5.46 2.63-.73 2.21 26.91-4.12 1.15-12-24.19 2.84-.8 2.42 4.88zm.31 2.55-5.69 1.58 7 13.94z"/><path d="m297.73 508-.44-2.62 6.39-1.07-1.56-9.3-7.84 1.31-.45-2.65 10.77-1.8 4.4 26.13-10.76 1.8-.45-2.65 7.85-1.31-1.49-8.93z"/><path d="m288.77 494.3 2.59 26.4-2.94.28-2.33-23.71-7.54.74-.26-2.68z"/><path d="m262.22 501.27 1.07-5.33h2.73l-5.32 26.47h-4.28l-4.83-26.56h2.95l1 5.35zm-.4 2.53-5.91-.05 2.85 15.33z"/><path d="m238.83 521.48q-3.14-.27-4.38-1.93a6.57 6.57 0 0 1 -1-4.61l.18-2.15a7 7 0 0 1 1.09-3.48 4.24 4.24 0 0 1 2.66-1.68 4 4 0 0 1 -2.4-2.16 7.39 7.39 0 0 1 -.45-3.63l.35-4.12c.05-.57.07-1.14.07-1.68a3.88 3.88 0 0 0 -.33-1.53l3 .25a4.81 4.81 0 0 1 .28 1.26 14.8 14.8 0 0 1 -.06 2l-.36 4.16a3.93 3.93 0 0 0 .74 3.16 4.36 4.36 0 0 0 2.78 1.09l2.07.18 1-11.29 2.94.25-2.3 26.43zm1.82-12.39a4.56 4.56 0 0 0 -2.82.5 3.45 3.45 0 0 0 -1.23 2.8l-.22 2.53a4.48 4.48 0 0 0 .47 2.78 2.82 2.82 0 0 0 2.28 1.11l2.87.24.84-9.77z"/><path d="m219.93 519.44a5.49 5.49 0 0 1 -4.19-2.51 7.52 7.52 0 0 1 -.67-5l.37-2.36 2.77.44-.4 2.51a4.62 4.62 0 0 0 .29 2.9 3.26 3.26 0 0 0 4.65.75 4.56 4.56 0 0 0 1.2-2.67l2.2-13.84a4.51 4.51 0 0 0 -.3-2.91 3.27 3.27 0 0 0 -4.66-.74 4.67 4.67 0 0 0 -1.17 2.67l-.54 3.4-2.77-.44.52-3.25a7.52 7.52 0 0 1 2.2-4.56 6.51 6.51 0 0 1 8.91 1.42 7.57 7.57 0 0 1 .67 5l-2.16 13.54a9.58 9.58 0 0 1 -.79 2.65 5.66 5.66 0 0 1 -1.41 1.91 4.91 4.91 0 0 1 -2.05 1 6.75 6.75 0 0 1 -2.67.09z"/><path d="m207.68 502 2.75-11.61 2.88.68-6.11 25.8-2.88-.68 2.75-11.61-6.34-1.5-2.73 11.62-2.87-.68 6.1-25.81 2.88.69-2.75 11.61z"/><path d="m185.58 511.25 7.55-25.42 2.83.85-7.55 25.42z"/><path d="m176.79 508.45 3.76-23.17-11.85 20.25-2.56-.92 13.65-23.27 4.1 1.48-4.28 26.64z"/><path d="m162.9 496.36a7.37 7.37 0 0 1 -3.35 3.84 6.73 6.73 0 0 1 -8.35-3.74 7.34 7.34 0 0 1 .6-5.06l5.61-12.52a7.3 7.3 0 0 1 3.36-3.81 6.65 6.65 0 0 1 8.35 3.74 7.42 7.42 0 0 1 -.62 5zm3-13.84a4.51 4.51 0 0 0 .45-2.9 3.32 3.32 0 0 0 -4.34-1.94 4.62 4.62 0 0 0 -1.85 2.27l-5.72 12.79a4.57 4.57 0 0 0 -.46 2.89 3.32 3.32 0 0 0 4.34 1.94 4.56 4.56 0 0 0 1.86-2.26z"/><path d="m129.19 486.56a5.57 5.57 0 0 1 -3-3.83 7.33 7.33 0 0 1 1.18-4.9l6.76-11.54a7.23 7.23 0 0 1 3.69-3.42 5.62 5.62 0 0 1 4.82.81l5.36 3.14-13.4 22.88zm12.07-20.56a2.86 2.86 0 0 0 -2.53-.37 4.41 4.41 0 0 0 -2.08 2l-6.89 11.77a4.4 4.4 0 0 0 -.74 2.8 2.92 2.92 0 0 0 1.59 2l2.75 1.61 10.64-18.17z"/><path d="m117 464.72 1.49-2.19 5.35 3.66 5.33-7.78-6.57-4.5 1.52-2.22 9 6.17-15 21.88-9-6.17 1.52-2.22 6.56 4.5 5.12-7.47z"/><path d="m113.32 443.45-17.12 20.25-2.26-1.91 15.39-18.19-5.78-4.9 1.73-2.05z"/><path d="m96 435.32 4.46-3.11 2 1.9-22.21 15.44-3.06-3 14.89-22.55 2.11 2.07-3 4.53zm-2 1.55-4.23-4.13-8.55 13z"/><path d="m77.13 406.84 1.78 2.22-13.71 16.63 16.49-13.23 1.61 2-20.68 16.6-2.62-3.21 13.82-16.65-19.15 10-2.58-3.2 20.69-16.6 1.75 2.19-16.64 13.3z"/><path d="m63 398.18a4.69 4.69 0 0 0 1.9-2.18 2.77 2.77 0 0 0 -.49-2.53 2.71 2.71 0 0 0 -2.14-1.37 4.67 4.67 0 0 0 -2.75 1l-16.81 11.28-1.55-2.29 16.69-11.24a7.66 7.66 0 0 1 4.84-1.52 6.4 6.4 0 0 1 5 7.45 7.65 7.65 0 0 1 -3.23 3.91l-16.67 11.24-1.63-2.42z"/><path d="m42.87 382 2.3-1.32 3.23 5.62 8.18-4.71-4-6.89 2.33-1.34 5.44 9.45-22.96 13.19-5.39-9.45 2.33-1.35 4 6.9 7.85-4.51z"/><path d="m26.12 375.08q-1.36-2.83-.57-4.75a6.58 6.58 0 0 1 3.45-3.21l1.95-.94a7 7 0 0 1 3.55-.84 4.18 4.18 0 0 1 2.79 1.43 4 4 0 0 1 .64-3.17 7.49 7.49 0 0 1 2.89-2.24l3.72-1.8c.52-.25 1-.52 1.48-.8a3.78 3.78 0 0 0 1.15-1.06l1.3 2.69a4.65 4.65 0 0 1 -.94.88 14.18 14.18 0 0 1 -1.74 1l-3.79 1.78a3.91 3.91 0 0 0 -2.34 2.25 4.3 4.3 0 0 0 .47 2.95l.91 1.87 10.2-4.93 1.28 2.66-23.83 11.55zm11.58-4.76a4.46 4.46 0 0 0 -1.87-2.17c-.73-.38-1.74-.25-3 .37l-2.29 1.11a4.41 4.41 0 0 0 -2.15 1.82 2.81 2.81 0 0 0 .21 2.52l1.26 2.6 8.83-4.28z"/><path d="m43.82 349.65-22.14 8.82 1.81 4.53-2.49 1-4.7-11.78 2.49-1 1.81 4.54 22.14-8.82z"/><path d="m22.54 333.81 2.52-.81 2 6.17 9-2.88-2.43-7.58 2.56-.82 3.34 10.39-25.25 8.1-3.38-10.38 2.56-.83 2.44 7.58 8.62-2.75z"/><path d="m2.74 299.07 27.9 5.82.44 2.54-27.9-5.82z"/><path d="m1.37 288.11 27.63 7 .33 2.56-27.63-7z"/><path d="m.45 277.05 27.32 8.13.22 2.56-27.32-8.12z"/><path d="m0 266 27 9.27.12 2.57-27-9.27z"/></g></svg>