<svg viewBox="0 0 322.1 310.96" xmlns="http://www.w3.org/2000/svg"><g fill="none" stroke="#fff" stroke-miterlimit="10" stroke-width="3"><path d="m320.68 271c-42.2-127.73-141-227.7-268.92-269.54"/><path d="m312.84 276.34c-42.2-127.72-139.66-223.84-267.54-265.69"/><path d="m305.45 281.88c-42.19-127.73-140.11-218.32-267.99-260.16"/><path d="m297.15 287.41c-42.15-127.72-140.15-216.41-268-258.31"/><path d="m291.62 293c-42.2-127.77-141.5-215.59-269.39-257.44"/><path d="m287 298.48c-43.36-127.72-142.1-211.85-273.53-253.7"/><path d="m280.55 303.1c-43.17-127.73-142.28-210.98-273.1-252.83"/><path d="m275 310.48c-43.49-127.73-142.71-211.36-274.55-253.21"/></g></svg>